<svg xmlns="http://www.w3.org/2000/svg" width="788" height="440" role="img" aria-label="TH04 per-artifact reconstruction progress">
  <title>TH04 reconstruction progress by artifact</title>
  <desc>Each artifact has separate authored-boundary and function-acceptance bars. Only MAIN has a file-backed authored-byte percentage.</desc>
  <rect width="788" height="440" rx="8" fill="#1f2335"/>
  <text x="24" y="31" fill="#f4f4f5" font-family="sans-serif" font-size="18" font-weight="600">TH04 reconstruction progress</text>
  <text x="24" y="52" fill="#c8cad2" font-family="sans-serif" font-size="12">Two independent planes · authored function candidates only</text>
  <text x="154" y="83" fill="#f4f4f5" font-family="sans-serif" font-size="13" font-weight="600">Boundary confidence</text>
  <text x="476" y="83" fill="#f4f4f5" font-family="sans-serif" font-size="13" font-weight="600">Function acceptance</text>
  <text x="154" y="100" fill="#c8cad2" font-family="sans-serif" font-size="11">R reviewed · C corroborated · P provisional</text>
  <text x="476" y="100" fill="#c8cad2" font-family="sans-serif" font-size="11">Exact · blocked · pending</text>
  <text x="24" y="128" fill="#f4f4f5" font-family="sans-serif" font-size="14" font-weight="600">OP.EXE</text>
  <text x="24" y="148" fill="#c8cad2" font-family="monospace" font-size="11">93 candidates</text>
  <rect x="154" y="121" width="282" height="12" rx="4" fill="#353b52"/>
  <rect x="154.00" y="121" width="121.29" height="12" fill="#9b6de3"/>
  <rect x="275.29" y="121" width="136.45" height="12" fill="#5496d6"/>
  <rect x="411.74" y="121" width="24.26" height="12" fill="#596078"/>
  <rect x="476" y="121" width="282" height="12" rx="4" fill="#353b52"/>
  <rect x="476.00" y="121" width="112.19" height="12" fill="#55c7a6"/>
  <rect x="588.19" y="121" width="169.81" height="12" fill="#596078"/>
  <text x="154" y="150" fill="#c8cad2" font-family="monospace" font-size="11">R 40 · C 45 · P 8</text>
  <text x="476" y="150" fill="#c8cad2" font-family="monospace" font-size="11">Exact 37 · Blocked 0 · Pending 56</text>
  <text x="24" y="190" fill="#f4f4f5" font-family="sans-serif" font-size="14" font-weight="600">MAIN.EXE</text>
  <text x="24" y="210" fill="#c8cad2" font-family="monospace" font-size="11">495 candidates</text>
  <rect x="154" y="183" width="282" height="12" rx="4" fill="#353b52"/>
  <rect x="154.00" y="183" width="282.00" height="12" fill="#9b6de3"/>
  <rect x="476" y="183" width="282" height="12" rx="4" fill="#353b52"/>
  <rect x="476.00" y="183" width="280.29" height="12" fill="#55c7a6"/>
  <rect x="756.29" y="183" width="1.71" height="12" fill="#f0a95c"/>
  <text x="154" y="212" fill="#c8cad2" font-family="monospace" font-size="11">R 495 · C 0 · P 0</text>
  <text x="476" y="212" fill="#c8cad2" font-family="monospace" font-size="11">Exact 492 · Blocked 3 · Pending 0</text>
  <text x="24" y="252" fill="#f4f4f5" font-family="sans-serif" font-size="14" font-weight="600">MAINE.EXE</text>
  <text x="24" y="272" fill="#c8cad2" font-family="monospace" font-size="11">72 candidates</text>
  <rect x="154" y="245" width="282" height="12" rx="4" fill="#353b52"/>
  <rect x="154.00" y="245" width="141.00" height="12" fill="#9b6de3"/>
  <rect x="295.00" y="245" width="121.42" height="12" fill="#5496d6"/>
  <rect x="416.42" y="245" width="19.58" height="12" fill="#596078"/>
  <rect x="476" y="245" width="282" height="12" rx="4" fill="#353b52"/>
  <rect x="476.00" y="245" width="121.42" height="12" fill="#55c7a6"/>
  <rect x="597.42" y="245" width="160.58" height="12" fill="#596078"/>
  <text x="154" y="274" fill="#c8cad2" font-family="monospace" font-size="11">R 36 · C 31 · P 5</text>
  <text x="476" y="274" fill="#c8cad2" font-family="monospace" font-size="11">Exact 31 · Blocked 0 · Pending 41</text>
  <text x="24" y="314" fill="#f4f4f5" font-family="sans-serif" font-size="14" font-weight="600">ZUN.COM</text>
  <text x="24" y="334" fill="#c8cad2" font-family="monospace" font-size="11">13 candidates</text>
  <rect x="154" y="307" width="282" height="12" rx="4" fill="#353b52"/>
  <rect x="154.00" y="307" width="282.00" height="12" fill="#9b6de3"/>
  <rect x="476" y="307" width="282" height="12" rx="4" fill="#353b52"/>
  <rect x="476.00" y="307" width="43.38" height="12" fill="#f0a95c"/>
  <rect x="519.38" y="307" width="238.62" height="12" fill="#596078"/>
  <text x="154" y="336" fill="#c8cad2" font-family="monospace" font-size="11">R 13 · C 0 · P 0</text>
  <text x="476" y="336" fill="#c8cad2" font-family="monospace" font-size="11">Exact 0 · Blocked 2 · Pending 11</text>
  <path d="M24 366 H764" stroke="#4b526d"/>
  <text x="24" y="392" fill="#f4f4f5" font-family="sans-serif" font-size="13" font-weight="600">MAIN file-backed authored bytes only</text>
  <text x="764" y="392" fill="#c8cad2" text-anchor="end" font-family="monospace" font-size="12">83,442 / 83,469 · 99.97%</text>
  <rect x="24" y="402" width="282" height="12" rx="4" fill="#353b52"/>
  <rect x="24" y="402" width="281.91" height="12" fill="#9b6de3"/>
  <text x="330" y="413" fill="#c8cad2" font-family="sans-serif" font-size="11">OP / MAINE / ZUN packed-file byte denominator: n/a</text>
</svg>
